STARTFONT 2.1
FONT -Adobe-Palatino-Bold-R-Normal--14-100-100-100-P-81-ISO8859-1
SIZE 10 100 100
FONTBOUNDINGBOX 17 15 -2 -4

STARTPROPERTIES 26
_DEC_DEVICE_FONTNAMES "PS=Palatino-Bold"
FONTNAME_REGISTRY ""
FAMILY_NAME "Palatino"
FOUNDRY "Adobe"
WEIGHT_NAME "Bold"
SLANT "R"
SETWIDTH_NAME "Normal"
ADD_STYLE_NAME ""
PIXEL_SIZE 14
POINT_SIZE 100
RESOLUTION_X 100
RESOLUTION_Y 100
SPACING "P"
AVERAGE_WIDTH 81
CHARSET_REGISTRY "ISO8859"
CHARSET_ENCODING "1"
CHARSET_COLLECTIONS "ASCII ISO8859-1 ADOBE-STANDARD"
FULL_NAME "Palatino Bold"
COPYRIGHT "Copyright (c) 1991 Adobe Systems, Inc."
CAP_HEIGHT 10
X_HEIGHT 7
WEIGHT 10
QUAD_WIDTH 9
DEFAULT_CHAR 0
FONT_DESCENT 4
FONT_ASCENT 11
ENDPROPERTIES

CHARS 190

STARTCHAR space
ENCODING 32
SWIDTH 250 0
DWIDTH 4 0
BBX 1 1 0 0
BITMAP
00
ENDCHAR

STARTCHAR exclam
ENCODING 33
SWIDTH 278 0
DWIDTH 4 0
BBX 2 10 1 0
BITMAP
40
C0
C0
C0
C0
C0
80
00
C0
C0
ENDCHAR

STARTCHAR quotedbl
ENCODING 34
SWIDTH 402 0
DWIDTH 5 0
BBX 3 4 1 6
BITMAP
A0
A0
A0
A0
ENDCHAR

STARTCHAR numbersign
ENCODING 35
SWIDTH 606 0
DWIDTH 7 0
BBX 7 10 -1 0
BITMAP
14
14
14
7E
28
28
FC
50
50
50
ENDCHAR

STARTCHAR dollar
ENCODING 36
SWIDTH 500 0
DWIDTH 7 0
BBX 6 12 0 -1
BITMAP
10
78
D4
D4
F0
78
3C
1C
94
94
78
10
ENDCHAR

STARTCHAR percent
ENCODING 37
SWIDTH 889 0
DWIDTH 11 0
BBX 10 10 0 0
BITMAP
3880
6F80
CB00
D600
E400
09C0
1B40
1640
3680
2700
ENDCHAR

STARTCHAR ampersand
ENCODING 38
SWIDTH 833 0
DWIDTH 12 0
BBX 11 10 0 0
BITMAP
1C00
3200
3200
3400
39E0
5880
DD00
CE20
FFC0
7380
ENDCHAR

STARTCHAR quoteright
ENCODING 39
SWIDTH 278 0
DWIDTH 5 0
BBX 4 4 0 6
BITMAP
30
30
60
C0
ENDCHAR

STARTCHAR parenleft
ENCODING 40
SWIDTH 333 0
DWIDTH 5 0
BBX 4 12 0 -2
BITMAP
10
20
60
C0
C0
C0
C0
C0
C0
60
20
10
ENDCHAR

STARTCHAR parenright
ENCODING 41
SWIDTH 333 0
DWIDTH 5 0
BBX 4 12 0 -2
BITMAP
80
40
60
30
30
30
30
30
30
60
40
80
ENDCHAR

STARTCHAR asterisk
ENCODING 42
SWIDTH 444 0
DWIDTH 7 0
BBX 5 5 0 5
BITMAP
48
30
F0
28
20
ENDCHAR

STARTCHAR plus
ENCODING 43
SWIDTH 606 0
DWIDTH 9 0
BBX 7 7 0 0
BITMAP
10
10
10
FE
10
10
10
ENDCHAR

STARTCHAR comma
ENCODING 44
SWIDTH 250 0
DWIDTH 4 0
BBX 4 4 -1 -2
BITMAP
30
30
60
C0
ENDCHAR

STARTCHAR minus
ENCODING 45
SWIDTH 606 0
DWIDTH 9 0
BBX 7 1 0 3
BITMAP
FE
ENDCHAR

STARTCHAR period
ENCODING 46
SWIDTH 250 0
DWIDTH 4 0
BBX 2 2 1 0
BITMAP
C0
C0
ENDCHAR

STARTCHAR slash
ENCODING 47
SWIDTH 296 0
DWIDTH 4 0
BBX 4 10 0 0
BITMAP
10
10
20
20
20
40
40
40
80
80
ENDCHAR

STARTCHAR zero
ENCODING 48
SWIDTH 500 0
DWIDTH 7 0
BBX 6 10 0 0
BITMAP
78
CC
CC
CC
CC
CC
CC
CC
CC
78
ENDCHAR

STARTCHAR one
ENCODING 49
SWIDTH 500 0
DWIDTH 7 0
BBX 6 10 0 0
BITMAP
30
70
B0
30
30
30
30
30
30
FC
ENDCHAR

STARTCHAR two
ENCODING 50
SWIDTH 500 0
DWIDTH 7 0
BBX 6 10 0 0
BITMAP
78
FC
8C
8C
08
18
30
60
FC
FC
ENDCHAR

STARTCHAR three
ENCODING 51
SWIDTH 500 0
DWIDTH 7 0
BBX 6 10 0 0
BITMAP
78
DC
8C
0C
78
1C
0C
8C
DC
78
ENDCHAR

STARTCHAR four
ENCODING 52
SWIDTH 500 0
DWIDTH 7 0
BBX 6 10 0 0
BITMAP
18
38
58
58
98
98
FC
18
18
3C
ENDCHAR

STARTCHAR five
ENCODING 53
SWIDTH 500 0
DWIDTH 7 0
BBX 6 10 0 0
BITMAP
7C
7C
40
40
78
1C
0C
8C
DC
78
ENDCHAR

STARTCHAR six
ENCODING 54
SWIDTH 500 0
DWIDTH 7 0
BBX 6 10 0 0
BITMAP
3C
60
40
C0
D8
EC
CC
CC
4C
38
ENDCHAR

STARTCHAR seven
ENCODING 55
SWIDTH 500 0
DWIDTH 7 0
BBX 6 10 0 0
BITMAP
FC
FC
88
18
10
30
60
60
C0
C0
ENDCHAR

STARTCHAR eight
ENCODING 56
SWIDTH 500 0
DWIDTH 7 0
BBX 6 10 0 0
BITMAP
78
CC
C4
EC
78
DC
8C
8C
CC
78
ENDCHAR

STARTCHAR nine
ENCODING 57
SWIDTH 500 0
DWIDTH 7 0
BBX 6 10 0 0
BITMAP
78
CC
CC
CC
CC
7C
08
18
30
E0
ENDCHAR

STARTCHAR colon
ENCODING 58
SWIDTH 250 0
DWIDTH 4 0
BBX 2 7 1 0
BITMAP
C0
C0
00
00
00
C0
C0
ENDCHAR

STARTCHAR semicolon
ENCODING 59
SWIDTH 250 0
DWIDTH 4 0
BBX 4 9 -1 -2
BITMAP
30
30
00
00
00
30
30
60
C0
ENDCHAR

STARTCHAR less
ENCODING 60
SWIDTH 606 0
DWIDTH 9 0
BBX 8 7 0 0
BITMAP
07
1C
70
C0
70
1C
07
ENDCHAR

STARTCHAR equal
ENCODING 61
SWIDTH 606 0
DWIDTH 9 0
BBX 7 3 0 2
BITMAP
FE
00
FE
ENDCHAR

STARTCHAR greater
ENCODING 62
SWIDTH 606 0
DWIDTH 9 0
BBX 8 7 0 0
BITMAP
E0
38
0E
03
0E
38
E0
ENDCHAR

STARTCHAR question
ENCODING 63
SWIDTH 444 0
DWIDTH 7 0
BBX 6 10 0 0
BITMAP
78
CC
8C
18
30
20
20
00
30
30
ENDCHAR

STARTCHAR at
ENCODING 64
SWIDTH 747 0
DWIDTH 11 0
BBX 10 10 0 0
BITMAP
1E00
6180
40C0
8D40
9640
A640
A680
9B40
4080
3F00
ENDCHAR

STARTCHAR A
ENCODING 65
SWIDTH 778 0
DWIDTH 11 0
BBX 10 10 0 0
BITMAP
0C00
0C00
1600
1600
2300
2300
3F00
4180
4180
E3C0
ENDCHAR

STARTCHAR B
ENCODING 66
SWIDTH 667 0
DWIDTH 10 0
BBX 9 10 0 0
BITMAP
FE00
6300
6300
6300
7E00
6300
6180
6180
6300
FE00
ENDCHAR

STARTCHAR C
ENCODING 67
SWIDTH 722 0
DWIDTH 10 0
BBX 9 10 0 0
BITMAP
1F00
7180
E080
C000
C000
C000
C000
E000
7180
1F00
ENDCHAR

STARTCHAR D
ENCODING 68
SWIDTH 833 0
DWIDTH 12 0
BBX 11 10 0 0
BITMAP
FF00
61C0
60E0
6060
6060
6060
6060
60E0
61C0
FF00
ENDCHAR

STARTCHAR E
ENCODING 69
SWIDTH 611 0
DWIDTH 9 0
BBX 8 10 0 0
BITMAP
FF
61
60
64
7C
64
60
60
61
FF
ENDCHAR

STARTCHAR F
ENCODING 70
SWIDTH 556 0
DWIDTH 8 0
BBX 8 10 0 0
BITMAP
FF
61
60
64
7C
64
60
60
60
F8
ENDCHAR

STARTCHAR G
ENCODING 71
SWIDTH 833 0
DWIDTH 11 0
BBX 11 10 0 0
BITMAP
1F00
7180
E080
C000
C000
C1E0
C0C0
E0C0
7180
1F00
ENDCHAR

STARTCHAR H
ENCODING 72
SWIDTH 833 0
DWIDTH 12 0
BBX 11 10 0 0
BITMAP
F1E0
60C0
60C0
60C0
7FC0
60C0
60C0
60C0
60C0
F1E0
ENDCHAR

STARTCHAR I
ENCODING 73
SWIDTH 389 0
DWIDTH 6 0
BBX 4 10 1 0
BITMAP
F0
60
60
60
60
60
60
60
60
F0
ENDCHAR

STARTCHAR J
ENCODING 74
SWIDTH 389 0
DWIDTH 6 0
BBX 5 13 0 -3
BITMAP
78
30
30
30
30
30
30
30
30
30
30
E0
C0
ENDCHAR

STARTCHAR K
ENCODING 75
SWIDTH 778 0
DWIDTH 12 0
BBX 10 10 1 0
BITMAP
F1C0
6300
6600
6C00
7800
7C00
6E00
6700
6380
F1C0
ENDCHAR

STARTCHAR L
ENCODING 76
SWIDTH 611 0
DWIDTH 9 0
BBX 7 10 1 0
BITMAP
F0
60
60
60
60
60
60
60
62
FE
ENDCHAR

STARTCHAR M
ENCODING 77
SWIDTH 1000 0
DWIDTH 14 0
BBX 13 10 0 0
BITMAP
E038
6030
7070
7070
58B0
58B0
4D30
4D30
4630
E678
ENDCHAR

STARTCHAR N
ENCODING 78
SWIDTH 833 0
DWIDTH 12 0
BBX 11 10 0 0
BITMAP
E0E0
7040
7840
5C40
4E40
4740
43C0
41C0
40C0
E040
ENDCHAR

STARTCHAR O
ENCODING 79
SWIDTH 833 0
DWIDTH 12 0
BBX 11 10 0 0
BITMAP
1F00
71C0
E0E0
C060
C060
C060
C060
E0E0
71C0
1F00
ENDCHAR

STARTCHAR P
ENCODING 80
SWIDTH 611 0
DWIDTH 9 0
BBX 8 10 0 0
BITMAP
FE
63
63
63
66
6C
60
60
60
F0
ENDCHAR

STARTCHAR Q
ENCODING 81
SWIDTH 833 0
DWIDTH 12 0
BBX 11 13 0 -3
BITMAP
1F00
71C0
E0E0
C060
C060
C060
C060
E0E0
71C0
1F00
3E00
67E0
03C0
ENDCHAR

STARTCHAR R
ENCODING 82
SWIDTH 722 0
DWIDTH 11 0
BBX 10 10 0 0
BITMAP
FE00
6300
6300
6300
6600
7C00
6E00
6700
6380
F1C0
ENDCHAR

STARTCHAR S
ENCODING 83
SWIDTH 611 0
DWIDTH 9 0
BBX 8 10 0 0
BITMAP
3E
63
C1
E0
7E
3F
03
83
C6
7C
ENDCHAR

STARTCHAR T
ENCODING 84
SWIDTH 667 0
DWIDTH 9 0
BBX 8 10 0 0
BITMAP
FF
99
18
18
18
18
18
18
18
3C
ENDCHAR

STARTCHAR U
ENCODING 85
SWIDTH 778 0
DWIDTH 11 0
BBX 10 10 0 0
BITMAP
F1C0
6080
6080
6080
6080
6080
6080
6080
3100
1E00
ENDCHAR

STARTCHAR V
ENCODING 86
SWIDTH 778 0
DWIDTH 11 0
BBX 11 10 0 0
BITMAP
F0E0
6040
6080
3080
3100
3100
1A00
1A00
0C00
0C00
ENDCHAR

STARTCHAR W
ENCODING 87
SWIDTH 1000 0
DWIDTH 15 0
BBX 15 10 0 0
BITMAP
F18E
6184
6184
6388
32C8
34D0
34D0
1860
1860
1860
ENDCHAR

STARTCHAR X
ENCODING 88
SWIDTH 667 0
DWIDTH 10 0
BBX 9 10 0 0
BITMAP
E180
6100
3200
3A00
1C00
1C00
2E00
2600
4300
C380
ENDCHAR

STARTCHAR Y
ENCODING 89
SWIDTH 667 0
DWIDTH 10 0
BBX 10 10 0 0
BITMAP
E0C0
6180
3100
3300
1A00
1E00
0C00
0C00
0C00
1E00
ENDCHAR

STARTCHAR Z
ENCODING 90
SWIDTH 667 0
DWIDTH 9 0
BBX 8 10 0 0
BITMAP
7F
47
0E
0C
1C
38
30
70
E1
FF
ENDCHAR

STARTCHAR bracketleft
ENCODING 91
SWIDTH 333 0
DWIDTH 6 0
BBX 4 12 1 -2
BITMAP
F0
C0
C0
C0
C0
C0
C0
C0
C0
C0
C0
F0
ENDCHAR

STARTCHAR backslash
ENCODING 92
SWIDTH 606 0
DWIDTH 6 0
BBX 5 10 0 0
BITMAP
80
80
40
40
20
20
10
10
08
08
ENDCHAR

STARTCHAR bracketright
ENCODING 93
SWIDTH 333 0
DWIDTH 6 0
BBX 4 12 1 -2
BITMAP
F0
30
30
30
30
30
30
30
30
30
30
F0
ENDCHAR

STARTCHAR asciicircum
ENCODING 94
SWIDTH 606 0
DWIDTH 9 0
BBX 5 6 1 4
BITMAP
20
70
50
D8
88
88
ENDCHAR

STARTCHAR underscore
ENCODING 95
SWIDTH 500 0
DWIDTH 7 0
BBX 7 1 0 -2
BITMAP
FE
ENDCHAR

STARTCHAR quoteleft
ENCODING 96
SWIDTH 278 0
DWIDTH 5 0
BBX 4 4 1 6
BITMAP
30
60
C0
C0
ENDCHAR

STARTCHAR a
ENCODING 97
SWIDTH 500 0
DWIDTH 8 0
BBX 7 7 0 0
BITMAP
78
CC
1C
6C
CC
DC
6E
ENDCHAR

STARTCHAR b
ENCODING 98
SWIDTH 611 0
DWIDTH 9 0
BBX 8 10 0 0
BITMAP
60
E0
60
6E
77
63
63
63
66
7C
ENDCHAR

STARTCHAR c
ENCODING 99
SWIDTH 444 0
DWIDTH 7 0
BBX 6 7 0 0
BITMAP
38
6C
C0
C0
C0
EC
78
ENDCHAR

STARTCHAR d
ENCODING 100
SWIDTH 611 0
DWIDTH 9 0
BBX 8 10 0 0
BITMAP
06
0E
06
36
6E
C6
C6
C6
EE
77
ENDCHAR

STARTCHAR e
ENCODING 101
SWIDTH 500 0
DWIDTH 7 0
BBX 6 7 0 0
BITMAP
78
CC
CC
FC
C0
CC
78
ENDCHAR

STARTCHAR f
ENCODING 102
SWIDTH 389 0
DWIDTH 5 0
BBX 5 10 0 0
BITMAP
38
60
60
F8
60
60
60
60
60
F0
ENDCHAR

STARTCHAR g
ENCODING 103
SWIDTH 556 0
DWIDTH 7 0
BBX 7 11 0 -4
BITMAP
78
CE
CC
C8
F0
60
3C
C6
C6
C6
7C
ENDCHAR

STARTCHAR h
ENCODING 104
SWIDTH 611 0
DWIDTH 9 0
BBX 8 10 0 0
BITMAP
60
E0
60
6C
7E
66
66
66
66
F7
ENDCHAR

STARTCHAR i
ENCODING 105
SWIDTH 333 0
DWIDTH 5 0
BBX 4 10 0 0
BITMAP
60
60
00
60
E0
60
60
60
60
F0
ENDCHAR

STARTCHAR j
ENCODING 106
SWIDTH 333 0
DWIDTH 5 0
BBX 3 14 0 -4
BITMAP
60
60
00
60
E0
60
60
60
60
60
60
60
60
C0
ENDCHAR

STARTCHAR k
ENCODING 107
SWIDTH 611 0
DWIDTH 9 0
BBX 9 10 0 0
BITMAP
6000
E000
6000
6300
6600
6C00
7C00
6E00
6700
F380
ENDCHAR

STARTCHAR l
ENCODING 108
SWIDTH 333 0
DWIDTH 5 0
BBX 4 10 0 0
BITMAP
60
E0
60
60
60
60
60
60
60
F0
ENDCHAR

STARTCHAR m
ENCODING 109
SWIDTH 889 0
DWIDTH 13 0
BBX 12 7 0 0
BITMAP
6EC0
F760
6660
6660
6660
6660
F770
ENDCHAR

STARTCHAR n
ENCODING 110
SWIDTH 611 0
DWIDTH 9 0
BBX 8 7 0 0
BITMAP
6C
FE
66
66
66
66
F7
ENDCHAR

STARTCHAR o
ENCODING 111
SWIDTH 556 0
DWIDTH 7 0
BBX 6 7 0 0
BITMAP
78
CC
CC
CC
CC
CC
78
ENDCHAR

STARTCHAR p
ENCODING 112
SWIDTH 611 0
DWIDTH 9 0
BBX 8 11 0 -4
BITMAP
6E
F7
63
63
63
76
6C
60
60
60
F0
ENDCHAR

STARTCHAR q
ENCODING 113
SWIDTH 611 0
DWIDTH 8 0
BBX 8 11 0 -4
BITMAP
3A
66
C6
C6
C6
EE
76
06
06
06
0F
ENDCHAR

STARTCHAR r
ENCODING 114
SWIDTH 389 0
DWIDTH 6 0
BBX 5 7 0 0
BITMAP
68
F8
60
60
60
60
F0
ENDCHAR

STARTCHAR s
ENCODING 115
SWIDTH 444 0
DWIDTH 7 0
BBX 6 7 0 0
BITMAP
78
CC
E0
78
1C
CC
78
ENDCHAR

STARTCHAR t
ENCODING 116
SWIDTH 333 0
DWIDTH 5 0
BBX 5 9 0 0
BITMAP
60
60
F8
60
60
60
60
60
30
ENDCHAR

STARTCHAR u
ENCODING 117
SWIDTH 611 0
DWIDTH 9 0
BBX 8 7 0 0
BITMAP
66
EE
66
66
66
7E
37
ENDCHAR

STARTCHAR v
ENCODING 118
SWIDTH 556 0
DWIDTH 7 0
BBX 8 7 -1 0
BITMAP
F7
62
66
34
3C
18
18
ENDCHAR

STARTCHAR w
ENCODING 119
SWIDTH 833 0
DWIDTH 12 0
BBX 13 7 -1 0
BITMAP
F338
6310
6730
35A0
3DE0
18C0
18C0
ENDCHAR

STARTCHAR x
ENCODING 120
SWIDTH 500 0
DWIDTH 7 0
BBX 8 7 -1 0
BITMAP
E6
74
38
18
1C
2E
67
ENDCHAR

STARTCHAR y
ENCODING 121
SWIDTH 556 0
DWIDTH 8 0
BBX 8 11 0 -4
BITMAP
F7
62
62
36
34
3C
18
18
10
70
60
ENDCHAR

STARTCHAR z
ENCODING 122
SWIDTH 500 0
DWIDTH 7 0
BBX 6 7 0 0
BITMAP
FC
8C
18
30
60
C4
FC
ENDCHAR

STARTCHAR braceleft
ENCODING 123
SWIDTH 310 0
DWIDTH 5 0
BBX 4 12 0 -2
BITMAP
30
60
60
60
40
80
40
60
60
60
60
30
ENDCHAR

STARTCHAR bar
ENCODING 124
SWIDTH 606 0
DWIDTH 7 0
BBX 1 10 3 0
BITMAP
80
80
80
80
80
80
80
80
80
80
ENDCHAR

STARTCHAR braceright
ENCODING 125
SWIDTH 310 0
DWIDTH 5 0
BBX 4 12 0 -2
BITMAP
C0
60
60
60
20
10
20
60
60
60
60
C0
ENDCHAR

STARTCHAR asciitilde
ENCODING 126
SWIDTH 606 0
DWIDTH 9 0
BBX 7 3 0 2
BITMAP
62
FE
8C
ENDCHAR

STARTCHAR exclamdown
ENCODING 161
SWIDTH 278 0
DWIDTH 4 0
BBX 2 10 1 -3
BITMAP
C0
C0
00
40
C0
C0
C0
C0
C0
80
ENDCHAR

STARTCHAR cent
ENCODING 162
SWIDTH 500 0
DWIDTH 7 0
BBX 6 9 0 -1
BITMAP
08
78
DC
D0
D0
E0
EC
78
40
ENDCHAR

STARTCHAR sterling
ENCODING 163
SWIDTH 500 0
DWIDTH 7 0
BBX 7 10 -1 0
BITMAP
1E
32
32
30
20
7C
20
62
7E
DE
ENDCHAR

STARTCHAR currency
ENCODING 164
SWIDTH 606 0
DWIDTH 7 0
BBX 8 8 -1 1
BITMAP
C3
FF
66
42
42
66
FF
C3
ENDCHAR

STARTCHAR yen
ENCODING 165
SWIDTH 500 0
DWIDTH 7 0
BBX 8 10 -1 0
BITMAP
C1
62
66
34
7E
18
7E
18
18
3C
ENDCHAR

STARTCHAR brokenbar
ENCODING 166
SWIDTH 606 0
DWIDTH 7 0
BBX 1 10 3 0
BITMAP
80
80
80
80
00
00
80
80
80
80
ENDCHAR

STARTCHAR section
ENCODING 167
SWIDTH 500 0
DWIDTH 8 0
BBX 6 13 1 -3
BITMAP
78
8C
84
E0
78
9C
CC
E4
78
1C
84
C4
78
ENDCHAR

STARTCHAR dieresis
ENCODING 168
SWIDTH 333 0
DWIDTH 6 0
BBX 5 2 0 8
BITMAP
D8
D8
ENDCHAR

STARTCHAR copyright
ENCODING 169
SWIDTH 747 0
DWIDTH 11 0
BBX 10 10 0 0
BITMAP
1E00
6180
DEC0
B240
A040
A040
B240
DCC0
6180
1E00
ENDCHAR

STARTCHAR ordfeminine
ENCODING 170
SWIDTH 438 0
DWIDTH 7 0
BBX 5 7 1 3
BITMAP
60
B0
70
B0
F8
00
F8
ENDCHAR

STARTCHAR guillemotleft
ENCODING 171
SWIDTH 500 0
DWIDTH 8 0
BBX 7 5 0 1
BITMAP
36
6C
D8
6C
36
ENDCHAR

STARTCHAR logicalnot
ENCODING 172
SWIDTH 606 0
DWIDTH 9 0
BBX 7 4 0 1
BITMAP
FE
02
02
02
ENDCHAR

STARTCHAR hyphen
ENCODING 173
SWIDTH 333 0
DWIDTH 5 0
BBX 4 1 0 3
BITMAP
F0
ENDCHAR

STARTCHAR registered
ENCODING 174
SWIDTH 747 0
DWIDTH 11 0
BBX 10 10 0 0
BITMAP
1E00
6180
DEC0
9240
9E40
9440
9240
DAC0
6180
1E00
ENDCHAR

STARTCHAR macron
ENCODING 175
SWIDTH 333 0
DWIDTH 5 0
BBX 4 1 0 9
BITMAP
F0
ENDCHAR

STARTCHAR degree
ENCODING 176
SWIDTH 400 0
DWIDTH 6 0
BBX 4 4 1 6
BITMAP
60
90
90
60
ENDCHAR

STARTCHAR plusminus
ENCODING 177
SWIDTH 606 0
DWIDTH 9 0
BBX 7 7 0 0
BITMAP
10
10
FE
10
10
00
FE
ENDCHAR

STARTCHAR twosuperior
ENCODING 178
SWIDTH 300 0
DWIDTH 4 0
BBX 4 6 0 4
BITMAP
60
B0
30
20
40
F0
ENDCHAR

STARTCHAR threesuperior
ENCODING 179
SWIDTH 300 0
DWIDTH 4 0
BBX 4 6 0 4
BITMAP
70
B0
60
30
B0
E0
ENDCHAR

STARTCHAR acute
ENCODING 180
SWIDTH 333 0
DWIDTH 5 0
BBX 4 3 0 8
BITMAP
30
60
80
ENDCHAR

STARTCHAR mu
ENCODING 181
SWIDTH 611 0
DWIDTH 9 0
BBX 8 11 0 -4
BITMAP
66
EE
66
66
66
7E
77
60
60
60
60
ENDCHAR

STARTCHAR paragraph
ENCODING 182
SWIDTH 641 0
DWIDTH 9 0
BBX 8 12 0 -2
BITMAP
7F
EA
EA
EA
7A
0A
0A
0A
0A
0A
0A
1F
ENDCHAR

STARTCHAR periodcentered
ENCODING 183
SWIDTH 250 0
DWIDTH 4 0
BBX 2 2 1 3
BITMAP
C0
C0
ENDCHAR

STARTCHAR cedilla
ENCODING 184
SWIDTH 333 0
DWIDTH 5 0
BBX 4 4 0 -3
BITMAP
20
60
30
F0
ENDCHAR

STARTCHAR onesuperior
ENCODING 185
SWIDTH 300 0
DWIDTH 4 0
BBX 4 6 0 4
BITMAP
60
E0
60
60
60
F0
ENDCHAR

STARTCHAR ordmasculine
ENCODING 186
SWIDTH 488 0
DWIDTH 7 0
BBX 5 7 1 3
BITMAP
70
D8
D8
D8
70
00
F8
ENDCHAR

STARTCHAR guillemotright
ENCODING 187
SWIDTH 500 0
DWIDTH 8 0
BBX 7 5 0 1
BITMAP
D8
6C
36
6C
D8
ENDCHAR

STARTCHAR onequarter
ENCODING 188
SWIDTH 750 0
DWIDTH 11 0
BBX 10 10 0 0
BITMAP
6180
E100
6200
6600
6480
F980
1B80
1580
27C0
6180
ENDCHAR

STARTCHAR onehalf
ENCODING 189
SWIDTH 750 0
DWIDTH 11 0
BBX 10 10 0 0
BITMAP
6180
E100
6200
6600
6580
FAC0
18C0
1080
2100
63C0
ENDCHAR

STARTCHAR threequarters
ENCODING 190
SWIDTH 750 0
DWIDTH 11 0
BBX 10 10 0 0
BITMAP
7180
B100
6200
3600
B480
E980
1B80
1580
27C0
6180
ENDCHAR

STARTCHAR questiondown
ENCODING 191
SWIDTH 444 0
DWIDTH 7 0
BBX 6 10 0 -3
BITMAP
30
30
00
10
10
30
60
C4
CC
78
ENDCHAR

STARTCHAR Agrave
ENCODING 192
SWIDTH 778 0
DWIDTH 11 0
BBX 10 11 0 0
BITMAP
1800
0C00
0200
0000
0600
0B00
1300
3F00
2180
4180
E3C0
ENDCHAR

STARTCHAR Aacute
ENCODING 193
SWIDTH 778 0
DWIDTH 11 0
BBX 10 11 0 0
BITMAP
0300
0600
0800
0000
0600
0B00
1300
3F00
2180
4180
E3C0
ENDCHAR

STARTCHAR Acircumflex
ENCODING 194
SWIDTH 778 0
DWIDTH 11 0
BBX 10 11 0 0
BITMAP
0C00
1E00
3300
0000
0600
0B00
1300
3F00
2180
4180
E3C0
ENDCHAR

STARTCHAR Atilde
ENCODING 195
SWIDTH 778 0
DWIDTH 11 0
BBX 10 11 0 0
BITMAP
0C80
1F80
1300
0000
0600
0B00
1300
3F00
2180
4180
E3C0
ENDCHAR

STARTCHAR Adieresis
ENCODING 196
SWIDTH 778 0
DWIDTH 11 0
BBX 10 10 0 0
BITMAP
1B00
1B00
0000
0600
0B00
1300
3F00
2180
4180
E3C0
ENDCHAR

STARTCHAR Aring
ENCODING 197
SWIDTH 778 0
DWIDTH 11 0
BBX 10 11 0 0
BITMAP
0600
0D00
0D00
0600
0600
0B00
1300
3F00
2180
4180
E3C0
ENDCHAR

STARTCHAR AE
ENCODING 198
SWIDTH 1000 0
DWIDTH 15 0
BBX 14 10 0 0
BITMAP
0FFC
0584
0980
0990
11F0
1190
3F80
2180
4184
E3FC
ENDCHAR

STARTCHAR Ccedilla
ENCODING 199
SWIDTH 722 0
DWIDTH 10 0
BBX 9 13 0 -3
BITMAP
1F00
7180
E080
C000
C000
C000
C000
E000
7180
1F00
1800
0C00
3C00
ENDCHAR

STARTCHAR Egrave
ENCODING 200
SWIDTH 611 0
DWIDTH 9 0
BBX 8 11 0 0
BITMAP
30
18
04
00
FF
61
60
7C
60
61
FF
ENDCHAR

STARTCHAR Eacute
ENCODING 201
SWIDTH 611 0
DWIDTH 9 0
BBX 8 11 0 0
BITMAP
0C
18
30
00
FF
61
60
78
60
61
FF
ENDCHAR

STARTCHAR Ecircumflex
ENCODING 202
SWIDTH 611 0
DWIDTH 9 0
BBX 8 11 0 0
BITMAP
18
3C
66
00
FF
61
60
78
60
61
FF
ENDCHAR

STARTCHAR Edieresis
ENCODING 203
SWIDTH 611 0
DWIDTH 9 0
BBX 8 10 0 0
BITMAP
6C
6C
00
FF
61
60
78
60
61
FF
ENDCHAR

STARTCHAR Igrave
ENCODING 204
SWIDTH 389 0
DWIDTH 6 0
BBX 4 11 1 0
BITMAP
C0
60
10
00
F0
60
60
60
60
60
F0
ENDCHAR

STARTCHAR Iacute
ENCODING 205
SWIDTH 389 0
DWIDTH 6 0
BBX 4 11 1 0
BITMAP
30
60
80
00
F0
60
60
60
60
60
F0
ENDCHAR

STARTCHAR Icircumflex
ENCODING 206
SWIDTH 389 0
DWIDTH 6 0
BBX 6 11 0 0
BITMAP
30
78
CC
00
78
30
30
30
30
30
78
ENDCHAR

STARTCHAR Idieresis
ENCODING 207
SWIDTH 389 0
DWIDTH 6 0
BBX 5 10 1 0
BITMAP
D8
D8
00
F0
60
60
60
60
60
F0
ENDCHAR

STARTCHAR Eth
ENCODING 208
SWIDTH 833 0
DWIDTH 12 0
BBX 11 10 0 0
BITMAP
FF00
61C0
60E0
6060
F860
6060
6060
60E0
61C0
FF00
ENDCHAR

STARTCHAR Ntilde
ENCODING 209
SWIDTH 833 0
DWIDTH 12 0
BBX 11 11 0 0
BITMAP
1900
3F00
2600
0000
F0E0
7840
5C40
4E40
4740
43C0
E1C0
ENDCHAR

STARTCHAR Ograve
ENCODING 210
SWIDTH 833 0
DWIDTH 12 0
BBX 11 11 0 0
BITMAP
1800
0C00
0600
0000
1F00
71C0
E0E0
C060
E0E0
71C0
1F00
ENDCHAR

STARTCHAR Oacute
ENCODING 211
SWIDTH 833 0
DWIDTH 12 0
BBX 11 11 0 0
BITMAP
0300
0600
0C00
0000
1F00
71C0
E0E0
C060
E0E0
71C0
1F00
ENDCHAR

STARTCHAR Ocircumflex
ENCODING 212
SWIDTH 833 0
DWIDTH 12 0
BBX 11 11 0 0
BITMAP
0C00
1E00
3300
0000
1F00
71C0
E0E0
C060
E0E0
71C0
1F00
ENDCHAR

STARTCHAR Otilde
ENCODING 213
SWIDTH 833 0
DWIDTH 12 0
BBX 11 11 0 0
BITMAP
1900
3F00
2600
0000
1F00
71C0
E0E0
C060
E0E0
71C0
1F00
ENDCHAR

STARTCHAR Odieresis
ENCODING 214
SWIDTH 833 0
DWIDTH 12 0
BBX 11 10 0 0
BITMAP
1B00
1B00
0000
1F00
71C0
E0E0
C060
E0E0
71C0
1F00
ENDCHAR

STARTCHAR multiply
ENCODING 215
SWIDTH 606 0
DWIDTH 9 0
BBX 6 7 1 0
BITMAP
84
CC
78
30
78
CC
84
ENDCHAR

STARTCHAR Oslash
ENCODING 216
SWIDTH 833 0
DWIDTH 12 0
BBX 11 10 0 0
BITMAP
1F60
71C0
E1E0
C360
C660
CC60
D860
F0E0
71C0
DF00
ENDCHAR

STARTCHAR Ugrave
ENCODING 217
SWIDTH 778 0
DWIDTH 11 0
BBX 10 11 0 0
BITMAP
1800
0C00
0200
0000
F1C0
6080
6080
6080
6080
3100
1E00
ENDCHAR

STARTCHAR Uacute
ENCODING 218
SWIDTH 778 0
DWIDTH 11 0
BBX 10 11 0 0
BITMAP
0600
0C00
1000
0000
F1C0
6080
6080
6080
6080
3100
1E00
ENDCHAR

STARTCHAR Ucircumflex
ENCODING 219
SWIDTH 778 0
DWIDTH 11 0
BBX 10 11 0 0
BITMAP
0C00
1E00
3300
0000
F1C0
6080
6080
6080
6080
3100
1E00
ENDCHAR

STARTCHAR Udieresis
ENCODING 220
SWIDTH 778 0
DWIDTH 11 0
BBX 10 10 0 0
BITMAP
1B00
1B00
0000
F1C0
6080
6080
6080
6080
3100
1E00
ENDCHAR

STARTCHAR Yacute
ENCODING 221
SWIDTH 667 0
DWIDTH 10 0
BBX 10 11 0 0
BITMAP
0300
0600
0C00
0000
E0C0
6180
3300
1E00
0C00
0C00
1E00
ENDCHAR

STARTCHAR Thorn
ENCODING 222
SWIDTH 611 0
DWIDTH 9 0
BBX 8 10 0 0
BITMAP
F0
60
7E
63
63
67
7E
60
60
F0
ENDCHAR

STARTCHAR germandbls
ENCODING 223
SWIDTH 611 0
DWIDTH 8 0
BBX 7 10 0 0
BITMAP
1C
36
66
64
E8
6C
66
66
76
EC
ENDCHAR

STARTCHAR agrave
ENCODING 224
SWIDTH 500 0
DWIDTH 8 0
BBX 7 11 0 0
BITMAP
60
30
08
00
78
CC
1C
6C
CC
DC
6E
ENDCHAR

STARTCHAR aacute
ENCODING 225
SWIDTH 500 0
DWIDTH 8 0
BBX 7 11 0 0
BITMAP
18
30
40
00
78
CC
1C
6C
CC
DC
6E
ENDCHAR

STARTCHAR acircumflex
ENCODING 226
SWIDTH 500 0
DWIDTH 8 0
BBX 7 11 0 0
BITMAP
30
78
CC
00
78
CC
1C
6C
CC
DC
6E
ENDCHAR

STARTCHAR atilde
ENCODING 227
SWIDTH 500 0
DWIDTH 8 0
BBX 7 11 0 0
BITMAP
64
FC
98
00
78
CC
1C
6C
CC
DC
6E
ENDCHAR

STARTCHAR adieresis
ENCODING 228
SWIDTH 500 0
DWIDTH 8 0
BBX 7 10 0 0
BITMAP
6C
6C
00
78
CC
1C
6C
CC
DC
6E
ENDCHAR

STARTCHAR aring
ENCODING 229
SWIDTH 500 0
DWIDTH 8 0
BBX 7 10 0 0
BITMAP
30
48
30
78
CC
1C
6C
CC
DC
6E
ENDCHAR

STARTCHAR ae
ENCODING 230
SWIDTH 778 0
DWIDTH 11 0
BBX 10 7 0 0
BITMAP
7B80
CCC0
1CC0
6FC0
CC00
DCC0
6780
ENDCHAR

STARTCHAR ccedilla
ENCODING 231
SWIDTH 444 0
DWIDTH 7 0
BBX 6 10 0 -3
BITMAP
38
6C
C0
C0
C0
EC
78
30
18
78
ENDCHAR

STARTCHAR egrave
ENCODING 232
SWIDTH 500 0
DWIDTH 7 0
BBX 6 11 0 0
BITMAP
60
30
08
00
78
CC
CC
FC
C0
CC
78
ENDCHAR

STARTCHAR eacute
ENCODING 233
SWIDTH 500 0
DWIDTH 7 0
BBX 6 11 0 0
BITMAP
18
30
40
00
78
CC
CC
FC
C0
CC
78
ENDCHAR

STARTCHAR ecircumflex
ENCODING 234
SWIDTH 500 0
DWIDTH 7 0
BBX 6 11 0 0
BITMAP
30
78
CC
00
78
CC
CC
FC
C0
CC
78
ENDCHAR

STARTCHAR edieresis
ENCODING 235
SWIDTH 500 0
DWIDTH 7 0
BBX 6 10 0 0
BITMAP
D8
D8
00
78
CC
CC
FC
C0
CC
78
ENDCHAR

STARTCHAR igrave
ENCODING 236
SWIDTH 333 0
DWIDTH 5 0
BBX 4 11 0 0
BITMAP
C0
60
10
00
60
E0
60
60
60
60
F0
ENDCHAR

STARTCHAR iacute
ENCODING 237
SWIDTH 333 0
DWIDTH 5 0
BBX 4 11 0 0
BITMAP
30
60
80
00
60
E0
60
60
60
60
F0
ENDCHAR

STARTCHAR icircumflex
ENCODING 238
SWIDTH 333 0
DWIDTH 5 0
BBX 6 11 -1 0
BITMAP
30
78
CC
00
30
70
30
30
30
30
78
ENDCHAR

STARTCHAR idieresis
ENCODING 239
SWIDTH 333 0
DWIDTH 5 0
BBX 5 10 0 0
BITMAP
D8
D8
00
60
E0
60
60
60
60
F0
ENDCHAR

STARTCHAR eth
ENCODING 240
SWIDTH 556 0
DWIDTH 7 0
BBX 6 10 0 0
BITMAP
D8
70
98
68
CC
CC
CC
CC
CC
78
ENDCHAR

STARTCHAR ntilde
ENCODING 241
SWIDTH 611 0
DWIDTH 9 0
BBX 8 11 0 0
BITMAP
32
7E
4C
00
6C
F6
66
66
66
66
F7
ENDCHAR

STARTCHAR ograve
ENCODING 242
SWIDTH 556 0
DWIDTH 7 0
BBX 6 11 0 0
BITMAP
60
30
08
00
78
CC
CC
CC
CC
CC
78
ENDCHAR

STARTCHAR oacute
ENCODING 243
SWIDTH 556 0
DWIDTH 7 0
BBX 6 11 0 0
BITMAP
18
30
40
00
78
CC
CC
CC
CC
CC
78
ENDCHAR

STARTCHAR ocircumflex
ENCODING 244
SWIDTH 556 0
DWIDTH 7 0
BBX 6 11 0 0
BITMAP
30
78
CC
00
78
CC
CC
CC
CC
CC
78
ENDCHAR

STARTCHAR otilde
ENCODING 245
SWIDTH 556 0
DWIDTH 7 0
BBX 6 11 0 0
BITMAP
64
FC
98
00
78
CC
CC
CC
CC
CC
78
ENDCHAR

STARTCHAR odieresis
ENCODING 246
SWIDTH 556 0
DWIDTH 7 0
BBX 6 10 0 0
BITMAP
D8
D8
00
78
CC
CC
CC
CC
CC
78
ENDCHAR

STARTCHAR divide
ENCODING 247
SWIDTH 606 0
DWIDTH 9 0
BBX 8 7 0 0
BITMAP
18
18
00
FF
00
18
18
ENDCHAR

STARTCHAR oslash
ENCODING 248
SWIDTH 556 0
DWIDTH 7 0
BBX 8 7 -1 0
BITMAP
3D
66
6E
76
66
66
BC
ENDCHAR

STARTCHAR ugrave
ENCODING 249
SWIDTH 611 0
DWIDTH 9 0
BBX 8 11 0 0
BITMAP
30
18
0C
00
66
EE
66
66
66
7E
37
ENDCHAR

STARTCHAR uacute
ENCODING 250
SWIDTH 611 0
DWIDTH 9 0
BBX 8 11 0 0
BITMAP
0C
18
20
00
66
EE
66
66
66
7E
37
ENDCHAR

STARTCHAR ucircumflex
ENCODING 251
SWIDTH 611 0
DWIDTH 9 0
BBX 8 11 0 0
BITMAP
18
3C
66
00
66
EE
66
66
66
7E
37
ENDCHAR

STARTCHAR udieresis
ENCODING 252
SWIDTH 611 0
DWIDTH 9 0
BBX 8 10 0 0
BITMAP
6C
6C
00
66
EE
66
66
66
7E
37
ENDCHAR

STARTCHAR yacute
ENCODING 253
SWIDTH 556 0
DWIDTH 8 0
BBX 8 15 0 -4
BITMAP
06
0C
10
00
F7
62
62
36
34
3C
18
18
10
70
60
ENDCHAR

STARTCHAR thorn
ENCODING 254
SWIDTH 611 0
DWIDTH 9 0
BBX 8 14 0 -4
BITMAP
60
E0
60
6E
77
63
63
63
76
6C
60
60
60
F0
ENDCHAR

STARTCHAR ydieresis
ENCODING 255
SWIDTH 556 0
DWIDTH 8 0
BBX 8 14 0 -4
BITMAP
6C
6C
00
F7
62
62
36
34
3C
18
18
10
70
60
ENDCHAR
ENDFONT
